<?xml version="1.0" encoding="utf-8"?>
<!-- Generator: Adobe Illustrator 15.1.0, SVG Export Plug-In . SVG Version: 6.00 Build 0)  -->
<!DOCTYPE svg PUBLIC "-//W3C//DTD SVG 1.1 Basic//EN" "http://www.w3.org/Graphics/SVG/1.1/DTD/svg11-basic.dtd">
<svg version="1.1" baseProfile="basic"
	 id="svg3410" inkscape:version="0.48.3.1 r9886" sodipodi:docname="wii_balance_board.svg" xmlns:dc="http://purl.org/dc/elements/1.1/" xmlns:svg="http://www.w3.org/2000/svg" xmlns:inkscape="http://www.inkscape.org/namespaces/inkscape" xmlns:cc="http://creativecommons.org/ns#" xmlns:sodipodi="http://sodipodi.sourceforge.net/DTD/sodipodi-0.dtd" xmlns:rdf="http://www.w3.org/1999/02/22-rdf-syntax-ns#"
	 xmlns="http://www.w3.org/2000/svg" xmlns:xlink="http://www.w3.org/1999/xlink" x="0px" y="0px" width="724.57px"
	 height="445.193px" viewBox="0 0 724.57 445.193" xml:space="preserve">
<sodipodi:namedview  inkscape:window-maximized="0" id="namedview3663" inkscape:current-layer="svg3410" inkscape:window-y="88" inkscape:window-x="260" inkscape:window-height="940" inkscape:window-width="1658" inkscape:pageshadow="2" inkscape:pageopacity="0" pagecolor="#ffffff" inkscape:cy="193.60937" inkscape:cx="375.86705" showgrid="false" objecttolerance="10" guidetolerance="10" inkscape:zoom="1.3373449" gridtolerance="10" bordercolor="#666666" borderopacity="1">
	</sodipodi:namedview>
<path id="path3646" inkscape:connector-curvature="0" fill="#E8E8E8" stroke="#C8C8C8" stroke-width="6" d="M57.066,3.994
	C24.587,3.726-4.943,38.817,6.535,63.587c17.182,37.075,20,159,20,159s-2.818,121.926-20,159
	c-12.666,27.335,24.596,67.25,60.656,58.345c78.459-19.376,295.594-18.094,295.594-18.094c5.578-0.03,217.166-1.027,294.594,18.094
	c36.06,8.905,73.322-31.01,60.656-58.345c-17.182-37.073-20-159-20-159s2.818-121.925,20-159
	c12.666-27.333-24.597-67.217-60.656-58.313c-77.428,19.12-289.016,18.092-294.594,18.063c-0.074,0-1,0-1,0
	c-5.596,0.03-217.171,1.057-294.594-18.063C63.811,4.44,60.426,4.021,57.066,3.994z"/>
<path id="path3657" inkscape:connector-curvature="0" fill="#909090" fill-opacity="0.1569" stroke="#C8C8C8" stroke-width="4" d="
	M266.58,354.562c0,18.353-14.878,33.229-33.23,33.229H113.718c-18.353,0-33.231-14.878-33.231-33.229V90.633
	c0-18.353,14.878-33.231,33.231-33.231h119.631c18.353,0,33.23,14.878,33.23,33.231L266.58,354.562L266.58,354.562z"/>
<path id="path3659" inkscape:connector-curvature="0" fill="#909090" fill-opacity="0.1569" stroke="#C8C8C8" stroke-width="4" d="
	M649.121,354.562c0,18.353-14.877,33.229-33.23,33.229H496.26c-18.354,0-33.23-14.878-33.23-33.229V90.633
	c0-18.353,14.878-33.231,33.23-33.231h119.631c18.354,0,33.23,14.878,33.23,33.231V354.562z"/>
<rect id="rect4452" x="26.919" y="220.597" opacity="0.98" fill="#C8C8C8" width="670.732" height="4"/>
<rect id="rect4452-4" x="360.285" y="23.564" opacity="0.98" fill="#C8C8C8" width="4" height="398.064"/>
</svg>
